<svg width="63" height="63" viewBox="0 0 63 63" fill="none" xmlns="http://www.w3.org/2000/svg">
<path d="M25.5692 8.85938H1.8457C0.826241 8.85938 0 9.68562 0 10.7051V34.4286C0 35.4481 0.826241 36.2743 1.8457 36.2743H11.8615V52.2214C11.8615 53.2404 12.6878 54.0671 13.7072 54.0671H19.6385C20.433 54.0671 21.1381 53.5586 21.389 52.8049L27.3198 35.0121C27.3827 34.8242 27.4149 34.6271 27.4149 34.4286V10.7051C27.4149 9.68562 26.5887 8.85938 25.5692 8.85938Z" fill="#A6856D"/>
<path d="M61.1542 8.85938H37.4307C36.4112 8.85938 35.585 9.68562 35.585 10.7051V34.4286C35.585 35.4481 36.4112 36.2743 37.4307 36.2743H47.447V52.2214C47.447 53.2404 48.2732 54.0671 49.2927 54.0671H55.2234C56.018 54.0671 56.7231 53.5586 56.9744 52.8049L62.9052 35.0121C62.9677 34.8242 62.9999 34.6271 62.9999 34.4286V10.7051C62.9999 9.68562 62.1737 8.85938 61.1542 8.85938Z" fill="#A6856D"/>
</svg>
