<svg width="60" height="60" viewBox="0 0 60 60" fill="none" xmlns="http://www.w3.org/2000/svg">
<path d="M56.3988 27.1873C56.3988 24.9817 55.4034 22.9147 53.7071 21.5389C53.781 21.1867 53.8175 20.8483 53.8175 20.5153C53.8175 17.7679 51.786 15.4861 49.1466 15.0931C49.2072 14.7775 49.2359 14.4679 49.2359 14.1595C49.2359 11.2345 46.9307 8.84468 44.0429 8.69288C43.9955 8.68508 43.9476 8.67848 43.8978 8.67848C43.8738 8.67848 43.8503 8.68148 43.8257 8.68208C43.8017 8.68148 43.7783 8.67848 43.7537 8.67848C43.4789 8.67848 43.2023 8.70308 42.9101 8.75408C42.4025 6.06308 40.0584 4.05908 37.248 4.05908C34.0614 4.05908 31.4688 6.65168 31.4688 9.83888V49.3897C31.4688 53.4235 34.7501 56.7043 38.7833 56.7043C41.4593 56.7043 43.8882 55.2565 45.171 52.9567C45.4584 53.0191 45.7343 53.0575 46.0115 53.0755C47.7533 53.1865 49.4495 52.6159 50.7671 51.4597C52.0847 50.3035 52.8731 48.7033 52.9871 46.9537C53.0345 46.2247 52.9529 45.4933 52.7453 44.7709C55.0229 43.1563 56.3615 40.5997 56.3615 37.7983C56.3615 35.7673 55.6301 33.8173 54.2945 32.2639C55.6385 30.9031 56.3988 29.0827 56.3988 27.1873ZM54.5628 37.7995C54.5628 39.8899 53.6135 41.8075 51.9857 43.0909C50.7809 41.1733 48.6438 39.9487 46.3296 39.9487C45.8328 39.9487 45.4296 40.3519 45.4296 40.8487C45.4296 41.3455 45.8328 41.7487 46.3296 41.7487C48.3342 41.7487 50.1599 43.0045 50.8787 44.8735C51.1247 45.5263 51.2339 46.1869 51.1913 46.8379C51.1085 48.1075 50.5368 49.2685 49.5804 50.1073C48.624 50.9467 47.3958 51.3637 46.1292 51.2797C45.7728 51.2563 45.4043 51.1795 44.9693 51.0385C44.5253 50.8933 44.0447 51.1129 43.8617 51.5425C42.9947 53.5849 41.0009 54.9049 38.7827 54.9049C35.7419 54.9049 33.2681 52.4311 33.2681 49.3903V9.83948C33.2681 7.64528 35.0531 5.85968 37.2473 5.85968C39.2861 5.85968 40.9637 7.39688 41.1821 9.40448C39.5315 10.3501 38.4149 12.1255 38.4149 14.1601C38.4149 14.6575 38.8182 15.0601 39.3149 15.0601C39.8118 15.0601 40.215 14.6575 40.215 14.1601C40.215 12.1543 41.8283 10.5211 43.8245 10.4821C45.8207 10.5211 47.4341 12.1543 47.4341 14.1595C47.4341 14.5327 47.3639 14.9191 47.2187 15.3421C47.1845 15.4417 47.1683 15.5461 47.1701 15.6511C47.1707 15.6757 47.1719 15.6985 47.1743 15.7201C47.1707 15.7327 47.1683 15.7411 47.1683 15.7411C47.0975 16.0201 47.1648 16.3165 47.349 16.5379C47.5331 16.7593 47.8079 16.8793 48.0996 16.8607C48.1619 16.8565 48.2243 16.8487 48.3347 16.8331C50.3645 16.8331 52.0163 18.4849 52.0163 20.5147C52.0163 20.8579 51.9545 21.2101 51.8232 21.6241C51.7014 22.0051 51.8459 22.4209 52.1777 22.6441C53.6381 23.6275 54.5231 25.2415 54.5861 26.9893C54.5861 26.9917 54.5855 26.9941 54.5855 26.9965C54.5855 30.0145 52.1303 32.4703 49.1123 32.4703C46.0943 32.4703 43.6386 30.0145 43.6386 26.9965C43.6386 26.4991 43.2354 26.0965 42.7386 26.0965C42.2418 26.0965 41.8386 26.4991 41.8386 26.9965C41.8386 31.0075 45.1013 34.2703 49.1123 34.2703C50.4491 34.2703 51.6983 33.9013 52.7759 33.2695C53.9279 34.5235 54.5628 36.1273 54.5628 37.7995Z" fill="#C9A882"/>
<path d="M22.9074 4.05981C20.097 4.05981 17.7534 6.06381 17.2464 8.75481C16.9536 8.70381 16.677 8.67921 16.4022 8.67921C16.3782 8.67921 16.3548 8.68221 16.3302 8.68281C16.3062 8.68221 16.2828 8.67921 16.2582 8.67921C16.2084 8.67921 16.1604 8.68581 16.113 8.69361C13.2252 8.84542 10.9206 11.2352 10.9206 14.1602C10.9206 14.4686 10.95 14.7782 11.01 15.0938C8.37061 15.4868 6.33901 17.7686 6.33901 20.516C6.33901 20.8484 6.37561 21.1868 6.44941 21.5396C4.75321 22.9154 3.75781 24.9824 3.75781 27.188C3.75781 29.0834 4.51741 30.9038 5.86081 32.2658C4.52461 33.8192 3.79321 35.7692 3.79321 37.8002C3.79321 40.6016 5.13181 43.1576 7.40941 44.7728C7.20121 45.4952 7.12021 46.2266 7.16821 46.9562C7.28221 48.7052 8.07001 50.3054 9.38761 51.4616C10.7052 52.6184 12.3966 53.189 14.1432 53.0774C14.4162 53.0594 14.6946 53.0198 14.9832 52.958C16.266 55.2584 18.6948 56.7062 21.3708 56.7062C25.404 56.7062 28.6854 53.4248 28.6854 49.3916V9.83961C28.6866 6.65241 26.094 4.05981 22.9074 4.05981ZM26.8866 49.3904C26.8866 52.4312 24.4128 54.905 21.372 54.905C19.1538 54.905 17.16 53.585 16.2936 51.5426C16.149 51.2024 15.8178 50.9942 15.465 50.9942C15.3726 50.9942 15.2784 51.008 15.186 51.0386C14.7516 51.1796 14.3832 51.2564 14.0262 51.2798C12.7548 51.3632 11.5314 50.9462 10.5756 50.1074C9.61921 49.2686 9.04741 48.1076 8.96461 46.838C8.91901 46.142 9.03961 45.4364 9.32341 44.741C9.32761 44.7308 9.32641 44.7194 9.33001 44.7092C10.1352 42.8756 11.865 41.7374 13.8882 41.7374C14.3856 41.7374 14.7882 41.3342 14.7882 40.8374C14.7882 40.3406 14.3856 39.9374 13.8882 39.9374C11.5254 39.9374 9.38761 41.1416 8.15941 43.0808C6.53881 41.7974 5.59321 39.8846 5.59321 37.7996C5.59321 36.1274 6.22921 34.5236 7.38001 33.2702C8.45761 33.902 9.70741 34.271 11.0442 34.271C15.0552 34.271 18.318 31.0082 18.318 26.9972C18.318 26.4998 17.9154 26.0972 17.418 26.0972C16.9206 26.0972 16.518 26.4998 16.518 26.9972C16.518 30.0152 14.0628 32.471 11.0442 32.471C8.02561 32.471 5.57041 30.0152 5.57041 26.9972C5.57041 26.996 5.56981 26.9948 5.56981 26.9936C5.63161 25.2446 6.51661 23.6294 7.97761 22.6448C8.30941 22.4216 8.45341 22.0064 8.33221 21.6254C8.20021 21.2108 8.13901 20.8586 8.13901 20.5154C8.13901 18.4898 9.78361 16.8404 11.856 16.8404C11.8602 16.8404 11.865 16.8404 11.8692 16.8404C11.931 16.8488 11.9928 16.8566 12.0558 16.8608C12.3468 16.8788 12.6246 16.7582 12.8082 16.5356C12.9924 16.3124 13.0584 16.0148 12.9846 15.7352C12.9846 15.7346 12.9828 15.7268 12.9798 15.7166C12.9816 15.6956 12.9834 15.6764 12.984 15.6596C12.987 15.5516 12.9708 15.4442 12.9354 15.3422C12.7902 14.918 12.72 14.531 12.72 14.159C12.72 12.1538 14.3328 10.52 16.3296 10.4816C18.3264 10.5206 19.9392 12.1538 19.9392 14.1596C19.9392 14.657 20.3418 15.0596 20.8392 15.0596C21.3366 15.0596 21.7392 14.657 21.7392 14.1596C21.7392 12.125 20.6226 10.3496 18.972 9.40402C19.1904 7.39641 20.868 5.85921 22.9068 5.85921C25.101 5.85921 26.886 7.64482 26.886 9.83902L26.8866 49.3904Z" fill="#C9A882"/>
</svg>
