<svg width="58" height="58" viewBox="0 0 58 58" fill="none" xmlns="http://www.w3.org/2000/svg">
<g clip-path="url(#clip0_1_494)">
<path d="M29.0002 52.2483C28.6442 52.2472 28.2986 52.1282 28.0174 51.91C19.0596 44.95 12.8891 38.9566 8.5713 33.0439C3.0613 25.4878 1.80464 18.5117 4.83353 12.3089C6.99241 7.87832 13.1952 4.25332 20.4452 6.36387C23.9019 7.36234 26.9178 9.50358 29.0002 12.4378C31.0826 9.50358 34.0985 7.36234 37.5552 6.36387C44.7891 4.28554 51.008 7.87832 53.1669 12.3089C56.1957 18.5117 54.9391 25.4878 49.4291 33.0439C45.1113 38.9566 38.9407 44.95 29.983 51.91C29.7017 52.1282 29.3562 52.2472 29.0002 52.2483ZM16.3207 8.98998C14.5957 8.92284 12.8848 9.32678 11.372 10.1584C9.85909 10.9901 8.60127 12.2181 7.73353 13.7105C5.2363 18.8339 6.36408 24.5372 11.1813 31.1266C16.3007 37.7299 22.2954 43.6054 29.0002 48.5911C35.7039 43.6103 41.6985 37.7403 46.8191 31.1428C51.6524 24.5372 52.7641 18.8339 50.2669 13.7267C48.6557 10.5044 43.8224 7.94276 38.4413 9.45721C36.7159 9.96712 35.1163 10.8326 33.7456 11.9981C32.3748 13.1635 31.2633 14.6029 30.4824 16.2239C30.361 16.5194 30.1545 16.7721 29.8892 16.95C29.6238 17.1278 29.3116 17.2228 28.9921 17.2228C28.6727 17.2228 28.3604 17.1278 28.0951 16.95C27.8297 16.7721 27.6232 16.5194 27.5019 16.2239C26.7269 14.5989 25.6172 13.156 24.2456 11.9899C22.874 10.8238 21.2715 9.96068 19.543 9.45721C18.4957 9.15303 17.4113 8.99579 16.3207 8.98998Z" fill="#C9A882"/>
</g>
<defs>
<clipPath id="clip0_1_494">
<rect width="58" height="58" fill="white"/>
</clipPath>
</defs>
</svg>
