<?xml version="1.0" standalone="no"?>
<!DOCTYPE svg PUBLIC "-//W3C//DTD SVG 20010904//EN"
 "http://www.w3.org/TR/2001/REC-SVG-20010904/DTD/svg10.dtd">
<svg version="1.0" xmlns="http://www.w3.org/2000/svg"
 width="1024.000000pt" height="1024.000000pt" viewBox="0 0 1024.000000 1024.000000"
 preserveAspectRatio="xMidYMid meet">

<g transform="translate(0.000000,1024.000000) scale(0.100000,-0.100000)"
fill="#000000" stroke="none">
<path d="M3939 7816 c-76 -16 -122 -54 -161 -129 -27 -54 -31 -72 -32 -142 0
-127 51 -218 149 -262 36 -16 87 -18 564 -23 352 -3 525 -8 528 -15 2 -6 -47
-54 -109 -106 -109 -93 -353 -317 -508 -467 -71 -69 -76 -72 -110 -65 -50 11
-290 6 -374 -7 -194 -31 -347 -106 -485 -236 -262 -246 -340 -608 -206 -949
89 -227 290 -419 522 -497 135 -45 232 -60 383 -60 313 0 580 114 749 319 94
115 134 188 172 318 21 70 23 101 23 250 0 149 -2 179 -22 240 -34 104 -86
203 -142 268 -28 32 -50 64 -50 70 0 20 384 388 401 385 25 -4 309 -304 309
-325 0 -10 -21 -38 -46 -62 -76 -73 -152 -198 -187 -306 -29 -87 -38 -156 -38
-280 0 -250 88 -455 268 -627 153 -145 349 -228 587 -248 297 -25 596 65 787
237 54 48 152 180 189 253 89 176 110 459 49 649 -87 271 -315 489 -599 573
-95 27 -242 48 -347 48 l-93 0 -102 89 c-57 49 -173 155 -258 236 -85 81 -192
177 -238 213 -49 40 -81 73 -80 82 3 13 61 16 458 20 446 5 456 5 496 27 153
82 193 317 78 452 -81 95 -19 90 -1334 90 -850 -1 -1149 -4 -1191 -13z m11
-1544 c0 -5 -20 -23 -45 -42 -54 -41 -94 -90 -129 -158 -50 -98 -27 -260 46
-328 63 -58 87 -68 168 -67 124 0 189 40 394 242 68 66 131 121 139 121 20 0
31 -16 50 -80 25 -84 40 -208 32 -280 -8 -79 -46 -197 -86 -267 -33 -58 -132
-154 -188 -182 -134 -69 -346 -65 -491 9 -68 35 -142 113 -187 197 -150 281
-55 683 189 801 88 42 108 49 108 34z m2645 -119 c160 -204 190 -470 80 -696
-107 -218 -326 -318 -571 -261 -199 46 -345 202 -376 401 -16 102 -5 284 22
363 31 89 60 140 81 140 10 0 39 -25 66 -57 104 -122 256 -227 346 -239 97
-14 212 59 260 164 18 39 21 64 20 145 -1 118 7 122 72 40z"/>
<path d="M3448 4690 c-349 -59 -580 -319 -618 -696 -43 -423 186 -782 561
-879 93 -24 337 -17 429 13 84 28 166 77 203 124 25 31 30 48 34 105 5 79 -6
107 -56 140 -47 32 -91 29 -218 -13 -285 -96 -480 -27 -584 206 -22 50 -24 68
-24 200 0 126 3 152 22 202 44 112 107 188 191 230 42 21 61 23 177 23 118 0
140 -3 236 -33 59 -17 116 -32 127 -32 26 0 78 44 98 82 23 45 20 120 -7 168
-67 119 -346 198 -571 160z"/>
<path d="M4452 4689 c-55 -10 -115 -58 -141 -112 -24 -50 -55 -236 -146 -873
l-67 -471 20 -46 c28 -63 69 -87 147 -87 130 1 156 50 189 351 8 74 22 199 31
279 17 163 53 408 61 422 11 18 22 -4 34 -69 12 -59 50 -204 95 -353 7 -25 41
-138 74 -252 74 -251 96 -311 126 -346 21 -25 30 -27 110 -31 56 -2 95 1 110
9 42 22 94 143 149 346 13 49 46 163 74 254 27 91 62 208 77 260 31 111 54
180 62 193 13 21 23 -23 23 -100 0 -45 4 -104 10 -130 5 -26 19 -138 30 -248
41 -406 51 -468 83 -526 25 -47 52 -59 136 -59 76 0 109 17 136 70 21 41 19
165 -6 312 -11 67 -24 150 -29 183 -4 33 -26 186 -49 340 -23 154 -48 332 -56
395 -18 135 -29 173 -64 218 -40 51 -92 74 -172 74 -56 1 -75 -4 -114 -26 -80
-47 -91 -73 -236 -536 -23 -74 -59 -191 -81 -260 -22 -69 -44 -140 -50 -158
-11 -37 -28 -38 -39 -1 -4 13 -27 89 -52 169 -25 80 -59 192 -77 250 -79 260
-124 398 -140 430 -54 104 -147 151 -258 129z"/>
<path d="M6665 4694 c-62 -10 -202 -59 -255 -90 -82 -48 -127 -87 -187 -162
-82 -102 -130 -206 -158 -347 -29 -140 -31 -209 -9 -342 31 -193 92 -321 215
-451 133 -139 288 -203 499 -205 129 -1 189 12 308 69 197 95 341 286 398 530
23 100 15 338 -16 454 -64 244 -250 442 -485 516 -79 25 -236 39 -310 28z
m266 -372 c142 -70 219 -217 219 -419 0 -201 -79 -359 -215 -431 -45 -25 -60
-27 -160 -27 -98 0 -116 3 -165 26 -172 81 -267 325 -215 547 30 129 95 242
162 283 67 42 102 49 218 46 91 -2 118 -6 156 -25z"/>
</g>
</svg>
