<?xml version="1.0" encoding="UTF-8"?>
<svg version="1.1" xmlns="http://www.w3.org/2000/svg" width="1024" height="1024">
<path d="M0 0 C1.32001358 -0.0083016 1.32001358 -0.0083016 2.6666941 -0.0167709 C5.59156193 -0.03029592 8.5155643 -0.01545272 11.44041443 -0.00050354 C13.54696513 -0.00428965 15.65351335 -0.00979209 17.76005554 -0.01687622 C23.46452966 -0.03080904 29.16870144 -0.01967651 34.87315869 -0.00316501 C40.84983877 0.01071056 46.82650175 0.00422262 52.80319214 0.0007019 C62.83775186 -0.00199802 72.87219181 0.01145746 82.90672302 0.03465271 C94.50101959 0.06126824 106.09511603 0.06300638 117.68943268 0.05126435 C128.85351718 0.04047856 140.01752943 0.04667949 151.1816082 0.06081963 C155.92823435 0.06657171 160.67480749 0.06650285 165.4214344 0.06175423 C171.01196953 0.05697562 176.60228599 0.06712294 182.19277954 0.08870888 C184.24220479 0.09426457 186.29165111 0.09475325 188.3410778 0.08975601 C191.14282818 0.08378197 193.94391478 0.09634897 196.74560547 0.11352539 C197.55271754 0.10751535 198.35982962 0.1015053 199.19139963 0.09531313 C205.7130143 0.16780286 210.80652212 1.75539801 216.49681091 5.06370544 C220.97082044 9.77955332 224.06966464 15.54163876 224.30931091 22.12620544 C223.89064602 28.70854791 221.63837126 34.91978921 216.80931091 39.50120544 C207.91265084 46.13061182 197.7841884 45.23416802 187.23899841 45.20823669 C185.3475537 45.2213689 183.45612297 45.23667776 181.56471252 45.25405884 C176.61636385 45.29374366 171.66838342 45.3040886 166.71989441 45.30809021 C161.65844163 45.31745291 156.59720242 45.35488597 151.53587341 45.38987732 C141.62702908 45.45428482 131.71834629 45.48766289 121.80931091 45.50120544 C127.98963793 51.95987914 134.20207877 58.38538063 140.45760918 64.77124977 C143.36154842 67.73775505 146.25331336 70.71433452 149.11985779 73.71702576 C151.8881091 76.61590931 154.68489252 79.48424477 157.50362015 82.3340416 C158.57235147 83.42490445 159.63048308 84.52625952 160.67741013 85.63806534 C166.17006861 91.91678071 166.17006861 91.91678071 173.60583496 94.71763611 C176.1637154 94.20953131 178.3836233 93.44163806 180.80931091 92.50120544 C203.94343996 89.16231953 227.40046157 94.15175131 246.62181091 107.44651794 C249.11859714 109.37372481 251.47220777 111.38369588 253.80931091 113.50120544 C254.63946716 114.23854919 255.46962341 114.97589294 256.32493591 115.73558044 C271.73698178 130.20210202 281.23129091 150.40516113 282.01243591 171.59495544 C282.41334141 193.88933553 276.24234086 211.89673552 262.80931091 229.50120544 C262.16477966 230.35585388 261.52024841 231.21050232 260.85618591 232.09104919 C246.15834294 249.39747881 223.577615 258.75895516 201.41038513 260.71263123 C175.36477407 262.23957501 153.51005662 253.3827065 133.80931091 236.50120544 C133.20602966 235.99460388 132.60274841 235.48800232 131.98118591 234.96604919 C119.58295939 223.63963198 110.82788329 206.08972972 108.80931091 189.50120544 C108.68813904 188.52022888 108.56696716 187.53925232 108.44212341 186.52854919 C106.37928485 165.82469384 110.56847813 145.29498021 123.10618591 128.40745544 C124.48279494 126.74771407 125.89005096 125.11239139 127.34056091 123.51683044 C129.2019219 121.378074 129.2019219 121.378074 128.80931091 117.50120544 C127.75738396 115.84034446 127.75738396 115.84034446 126.2106781 114.36912537 C125.64298706 113.78559799 125.07529602 113.20207062 124.49040222 112.6008606 C123.86861084 111.98402908 123.24681946 111.36719757 122.60618591 110.73167419 C121.9719873 110.09127701 121.3377887 109.45087982 120.68437195 108.79107666 C119.34089953 107.44050067 117.99225908 106.09504885 116.63890076 104.75437927 C114.565352 102.69470611 112.51691545 100.61217876 110.46946716 98.52659607 C109.16232521 97.21850309 107.85377742 95.9118131 106.54368591 94.60667419 C105.92999146 93.97972153 105.316297 93.35276886 104.68400574 92.70681763 C102.77126381 90.77738701 102.77126381 90.77738701 99.80931091 88.50120544 C96.15726225 88.93750015 94.493982 90.45158832 91.94602966 93.03636169 C91.22351013 93.76403748 90.5009906 94.49171326 89.75657654 95.24143982 C89.01085388 96.00778748 88.26513123 96.77413513 87.49681091 97.56370544 C86.76268982 98.30298279 86.02856873 99.04226013 85.27220154 99.80393982 C81.13029755 104.00464635 77.16571213 108.3145957 73.31199646 112.78025818 C71.5749312 114.76962828 69.75823278 116.65328198 67.87181091 118.50120544 C66.99202576 119.36745544 66.99202576 119.36745544 66.09446716 120.25120544 C65.6703656 120.66370544 65.24626404 121.07620544 64.80931091 121.50120544 C65.63431091 122.49120544 66.45931091 123.48120544 67.30931091 124.50120544 C81.93242898 144.04489878 86.8497384 168.30018532 83.41087341 192.27952576 C80.53659271 206.49063284 74.30189527 218.58736539 64.80931091 229.50120544 C64.1428656 230.32362732 63.47642029 231.14604919 62.78977966 231.99339294 C48.61923858 248.87184819 27.58782549 258.38934949 5.80931091 260.50120544 C-18.34445915 261.68787992 -40.94694202 256.29545324 -59.37818909 240.06370544 C-60.99019039 238.55117891 -62.59473833 237.03065825 -64.19068909 235.50120544 C-64.90225159 234.85280701 -65.61381409 234.20440857 -66.34693909 233.53636169 C-81.0386854 219.72046949 -88.62908425 199.39821802 -89.39381409 179.49339294 C-89.8289321 156.61940399 -82.30648858 135.16414775 -66.6318512 118.35520935 C-50.08497854 101.42387181 -28.33563945 92.08430487 -4.69459534 91.45823669 C3.02558723 91.42661706 11.32237061 91.96636242 18.64134216 94.46995544 C21.346473 95.39012593 22.96887259 95.90631714 25.80931091 95.50120544 C30.85091809 91.7634622 34.85300642 87.23912813 38.50071716 82.13401794 C38.9325531 81.59518982 39.36438904 81.05636169 39.80931091 80.50120544 C40.46931091 80.50120544 41.12931091 80.50120544 41.80931091 80.50120544 C41.80931091 79.84120544 41.80931091 79.18120544 41.80931091 78.50120544 C43.31321716 77.05589294 43.31321716 77.05589294 45.37181091 75.37620544 C48.96873228 72.32388837 52.02169985 69.08665696 55.07493591 65.50120544 C56.86534953 63.43658433 58.71330733 61.4570273 60.62181091 59.50120544 C61.18513123 58.92370544 61.74845154 58.34620544 62.32884216 57.75120544 C63.80931091 56.50120544 63.80931091 56.50120544 65.80931091 56.50120544 C66.06454529 55.91854919 66.31977966 55.33589294 66.58274841 54.73558044 C67.92672179 52.28732322 69.42741387 50.68377297 71.43431091 48.75120544 C72.06595154 48.13761169 72.69759216 47.52401794 73.34837341 46.89183044 C73.83048279 46.43292419 74.31259216 45.97401794 74.80931091 45.50120544 C73.23862854 45.495737 73.23862854 45.495737 71.63621521 45.49015808 C61.74927375 45.45315431 51.86264221 45.39532279 41.97593689 45.3173027 C36.89352664 45.27785918 31.81128884 45.24565533 26.72874451 45.23020935 C21.82020091 45.21502226 16.91213152 45.1805401 12.00379944 45.13289642 C10.13484325 45.11810382 8.26581935 45.11016565 6.39680481 45.10932159 C3.77077679 45.10694377 1.14605064 45.0797996 -1.47975159 45.04710388 C-2.24580215 45.05213425 -3.01185272 45.05716461 -3.80111694 45.06234741 C-10.33546447 44.93716001 -15.50446613 42.85516041 -20.43287659 38.53636169 C-25.30257323 32.65311575 -27.6552039 28.52720237 -27.43678284 20.76683044 C-26.71706 14.14081072 -23.02011901 8.86046347 -18.19068909 4.50120544 C-12.25213313 0.95091565 -6.8246013 -0.081441 0 0 Z M-33.19068909 133.50120544 C-43.77716134 140.50424898 -50.67083326 152.7771464 -53.80006409 164.85276794 C-56.07939429 180.30662669 -53.42669961 194.69618824 -44.19068909 207.50120544 C-41.87812415 210.23046935 -41.87812415 210.23046935 -39.19068909 212.50120544 C-38.6402594 213.04261169 -38.08982971 213.58401794 -37.52272034 214.14183044 C-26.40724854 224.68433978 -13.90164445 227.99008073 1.02806091 227.75120544 C16.92882395 226.69991533 28.00768626 219.66242954 38.81712341 208.41136169 C47.81723666 197.9501911 50.06350043 184.87439849 49.80931091 171.50120544 C48.98503661 162.171919 45.22371072 154.04269088 39.80931091 146.50120544 C35.3241118 150.14781209 31.21650575 154.05069822 27.19212341 158.19651794 C26.68711304 158.71413696 26.18210266 159.23175598 25.66178894 159.76506042 C23.55286372 161.92796541 21.44536944 164.09172274 19.35765076 166.27513123 C12.71604466 173.20631218 6.83020784 179.25063895 -2.97584534 180.99729919 C-9.53421155 180.82855907 -15.13032651 180.23561225 -20.17115784 175.73167419 C-25.58353831 169.89523092 -27.67241583 164.68579401 -27.43287659 156.72776794 C-26.04949342 144.00956789 -11.7482712 133.95196614 -3.19068909 125.50120544 C-13.15104775 122.63102118 -24.79102558 128.40365181 -33.19068909 133.50120544 Z M201.80931091 125.50120544 C206.0880735 130.73080416 210.71383733 135.47268985 215.58177185 140.14866638 C221.68334319 146.10916093 223.91498282 150.84745342 224.12181091 159.25120544 C224.04654742 164.8754413 223.37443498 169.05470348 219.80931091 173.50120544 C214.37539901 178.58993032 209.98347307 180.61219247 202.55931091 180.81370544 C201.66727966 180.85108826 200.77524841 180.88847107 199.85618591 180.92698669 C192.31042454 179.87251491 187.28982554 175.52877263 182.24681091 170.12620544 C181.1198311 168.95637776 179.99094739 167.788381 178.86009216 166.62229919 C178.06659363 165.80028015 178.06659363 165.80028015 177.25706482 164.96165466 C175.56783082 163.25760782 173.79390555 161.70408618 171.93431091 160.18870544 C168.76483887 157.58911384 166.23265055 154.58995059 163.58665466 151.46995544 C160.90120249 148.49530073 157.91104308 146.0332317 154.80931091 143.50120544 C146.08323888 155.10598165 141.76137937 167.9854129 142.80931091 182.50120544 C145.27270535 197.1145623 153.01216724 210.19216566 165.12181091 218.81370544 C178.62749573 227.15405818 193.38790384 229.79081592 208.99681091 226.43870544 C222.39512624 222.59773483 233.14809625 214.17033343 240.27024841 202.34886169 C247.07211494 189.76368226 249.40345803 175.37711348 245.37522888 161.45823669 C242.98643156 154.25657888 239.71278217 148.26649892 234.80931091 142.50120544 C234.14028748 141.70972107 233.47126404 140.91823669 232.78196716 140.10276794 C225.89135068 132.60159051 217.50856021 128.38836196 207.80931091 125.50120544 C204.55886382 125.33322075 204.55886382 125.33322075 201.80931091 125.50120544 Z " fill="#000000" transform="translate(431.19068908691406,295.49879455566406)"/>
<path d="M0 0 C3.21402594 0.41161562 6.42936685 0.81232644 9.64481544 1.21265221 C24.70354027 3.08830589 39.74925711 5.04539289 54.76507568 7.24078369 C55.84659912 7.39750549 56.92812256 7.55422729 58.04241943 7.71569824 C75.19015419 10.2810341 88.24989077 17.53636485 103.13861084 26.16607666 C107.36206551 28.59837041 111.61945114 30.96661956 115.88031006 33.33258057 C125.40980325 38.62674345 134.88164217 44.01630963 144.30413818 49.49859619 C145.26005859 50.0535376 146.215979 50.608479 147.2008667 51.18023682 C170.92277182 65.04836347 170.92277182 65.04836347 174.42913818 72.06109619 C175.03935054 78.16321972 173.41348951 81.93174235 170.42913818 87.06109619 C170.9718335 87.56898682 171.51452881 88.07687744 172.07366943 88.60015869 C181.26885404 97.4474174 181.26885404 97.4474174 181.51507568 102.99859619 C181.15531824 107.99733126 179.59161595 111.08199176 176.42913818 115.06109619 C174.07867199 116.55430058 171.99115292 117.73314321 169.49163818 118.87359619 C168.57994873 119.32122314 168.57994873 119.32122314 167.64984131 119.77789307 C155.63860337 125.51789135 142.37544515 124.05495378 130.18988037 119.75201416 C125.83903643 118.25437243 122.88451076 117.82958221 118.42913818 119.06109619 C116.42100892 120.04466971 114.4205921 121.04418355 112.42913818 122.06109619 C91.0337153 127.53172971 70.26153661 116.56921281 50.81976318 108.95172119 C38.73999214 104.18013499 38.73999214 104.18013499 26.42913818 100.06109619 C25.52034912 99.7787915 24.61156006 99.49648682 23.67523193 99.20562744 C14.70839876 97.38488116 6.29581381 102.3911875 -1.7276001 105.86871338 C-6.65382197 107.93463023 -11.67965762 109.72759257 -16.69586182 111.56109619 C-37.86699257 119.42726342 -54.58816864 127.76642734 -70.96295166 143.52545166 C-73.37012765 145.82443996 -75.85902594 148.01432591 -78.38726807 150.17828369 C-80.20675512 151.74714373 -81.99857775 153.33861818 -83.78570557 154.94390869 C-92.89265811 163.06563119 -102.36993669 170.36105077 -112.57086182 177.06109619 C-113.15657959 177.44636475 -113.74229736 177.8316333 -114.34576416 178.22857666 C-139.09890607 194.17482644 -169.84389268 200.99686485 -198.7612915 194.74517822 C-216.94899667 190.31678494 -233.67268882 183.00461732 -250.33843994 174.64019775 C-253.78733936 172.95534266 -257.26980484 171.3697599 -260.77398682 169.80328369 C-261.96177734 169.27065918 -263.14956787 168.73803467 -264.37335205 168.18927002 C-266.66030056 167.1691545 -268.95132074 166.15810346 -271.24688721 165.15753174 C-272.79364136 164.46204224 -272.79364136 164.46204224 -274.37164307 163.75250244 C-275.28083496 163.3523291 -276.19002686 162.95215576 -277.12677002 162.53985596 C-280.07349347 160.75698672 -281.69685656 158.94112038 -283.57086182 156.06109619 C-283.3603355 149.85056988 -283.3603355 149.85056988 -280.57086182 147.06109619 C-273.00768524 145.83830716 -267.24036409 149.17945657 -260.66046143 152.5300293 C-258.72800476 153.51405429 -256.78683792 154.4785368 -254.84234619 155.4385376 C-252.25650086 156.71717149 -249.67431102 158.00267 -247.09576416 159.29595947 C-214.79098726 175.47296023 -182.88128171 188.39993585 -146.65679932 176.84234619 C-122.44542488 168.64010138 -102.13790304 152.16109076 -83.89117432 134.67071533 C-71.41799718 122.74699668 -59.4196942 113.06212856 -43.57086182 106.06109619 C-42.56789063 105.61314697 -41.56491943 105.16519775 -40.53155518 104.70367432 C-34.25824255 101.95221359 -27.96823707 99.41457746 -21.51226807 97.13140869 C-20.82683929 96.88882828 -20.14141052 96.64624786 -19.43521118 96.39631653 C-16.63705011 95.41019314 -13.83743293 94.42877776 -11.03253174 93.4619751 C-3.19732836 90.75200025 4.3372897 87.8186212 11.67132568 83.92828369 C12.28354477 83.60409454 12.89576385 83.2799054 13.52653503 82.94589233 C20.75974209 78.97062182 26.50405728 73.64007432 29.86663818 66.01422119 C30.83157503 62.66374604 30.51863553 60.32958823 29.42913818 57.06109619 C26.59646667 54.13400229 23.7169358 53.81802092 19.80413818 53.62359619 C-2.33797444 54.38409147 -24.78048517 63.51719033 -45.66925049 70.34503174 C-60.35432436 75.13767379 -75.01439695 79.61662577 -90.57086182 80.06109619 C-91.80135254 80.10774414 -91.80135254 80.10774414 -93.05670166 80.15533447 C-95.89470576 80.2546771 -98.73166946 80.31872327 -101.57086182 80.37359619 C-102.4922998 80.40356689 -103.41373779 80.4335376 -104.36309814 80.4644165 C-110.91867342 80.5200799 -110.91867342 80.5200799 -114.16851807 78.23297119 C-116.06299831 75.29890151 -116.08108761 73.48689795 -115.57086182 70.06109619 C-114.02579715 68.02442004 -112.84940025 67.20036541 -110.57086182 66.06109619 C-108.48279923 65.89606413 -106.39030389 65.78595923 -104.29742432 65.70172119 C-88.86909214 64.97576143 -74.37597596 63.7716919 -59.57086182 59.06109619 C-58.52398193 58.73157959 -57.47710205 58.40206299 -56.39849854 58.06256104 C-50.46282629 56.18497633 -44.53988747 54.27017293 -38.62164307 52.33843994 C16.47205962 34.43581092 16.47205962 34.43581092 34.00726318 41.64703369 C38.0135181 43.98616963 40.95168054 47.15466127 43.42913818 51.06109619 C43.42913818 51.72109619 43.42913818 52.38109619 43.42913818 53.06109619 C44.48488037 53.00888916 44.48488037 53.00888916 45.56195068 52.95562744 C64.24853117 52.44333215 79.94064479 60.06552615 96.61663818 67.43609619 C123.17131864 81.23186082 123.17131864 81.23186082 151.69476318 81.20172119 C155.37832684 79.47919142 157.11470856 78.53274062 159.42913818 75.06109619 C158.77945068 74.83164307 158.12976318 74.60218994 157.46038818 74.36578369 C153.41616774 72.62510118 149.71866935 70.41910833 145.92913818 68.18609619 C144.22241673 67.18947173 142.51537377 66.19339767 140.80804443 65.19781494 C139.92390869 64.68138428 139.03977295 64.16495361 138.12884521 63.63287354 C133.72055211 61.06635237 129.29524197 58.52987047 124.86663818 55.99859619 C123.98765869 55.49610352 123.1086792 54.99361084 122.20306396 54.47589111 C115.86650111 50.86193303 109.49949101 47.30613352 103.10784912 43.79058838 C98.37785329 41.1786893 93.71875327 38.46610291 89.07611084 35.70220947 C77.11584291 28.63337532 66.75035332 24.21490712 52.97210693 22.22906494 C51.81075729 22.05965393 50.64940765 21.89024292 49.4528656 21.71569824 C33.98134049 19.50826369 18.45713375 17.71280557 2.93377686 15.91412354 C-1.44290652 15.40692895 -5.81859496 14.89163361 -10.1940794 14.37421036 C-13.61072241 13.97112601 -17.02786403 13.57240593 -20.44516945 13.17498016 C-22.06034258 12.98658549 -23.67535685 12.79682315 -25.29019737 12.60559845 C-27.53389381 12.34052703 -29.77820411 12.08141673 -32.02276611 11.8237915 C-33.29146042 11.67597229 -34.56015472 11.52815308 -35.86729431 11.37585449 C-58.34729533 9.46532717 -76.72882201 20.66117783 -95.84918213 31.06671143 C-99.30003463 32.92976808 -102.79239202 34.6960595 -106.30523682 36.44000244 C-112.57900308 39.5620728 -118.84124315 42.70634238 -125.09785461 45.86265564 C-129.20873554 47.93552085 -133.32178572 50.00405174 -137.43556309 52.07116222 C-140.47485777 53.59867427 -143.51295982 55.12847259 -146.54864502 56.66314697 C-150.11125572 58.46404114 -153.67881154 60.25494237 -157.24664307 62.04547119 C-158.32086014 62.59032166 -159.39507721 63.13517212 -160.50184631 63.6965332 C-178.4752488 72.68521406 -196.00243326 76.34927228 -215.57086182 70.06109619 C-222.9182832 67.46803027 -229.47742229 64.02463082 -236.13336182 59.99859619 C-237.08138672 59.43003906 -238.02941162 58.86148193 -239.00616455 58.2756958 C-241.86871453 56.54970768 -244.7215778 54.80888382 -247.57086182 53.06109619 C-248.42422119 52.53934814 -249.27758057 52.0176001 -250.15679932 51.4800415 C-252.49211061 50.04285512 -254.81518916 48.58823294 -257.13336182 47.12359619 C-258.15828735 46.48828979 -258.15828735 46.48828979 -259.20391846 45.84014893 C-263.51146427 43.06871997 -266.58374032 40.24650634 -269.57086182 36.06109619 C-269.57086182 33.12620723 -269.01314803 31.74909696 -267.44586182 29.31109619 C-264.49511892 27.34393426 -262.09563826 27.2057024 -258.57086182 27.06109619 C-255.99880227 28.37577141 -254.02921892 29.5993056 -251.75836182 31.31109619 C-250.44292834 32.24270206 -249.12511402 33.17095308 -247.80523682 34.09625244 C-247.11752197 34.5836792 -246.42980713 35.07110596 -245.72125244 35.57330322 C-229.04047635 47.1142489 -209.67011748 60.20316364 -188.57086182 58.06109619 C-179.70940636 55.95958118 -171.67223411 52.46408941 -163.59429932 48.33453369 C-161.95819199 47.51295273 -161.95819199 47.51295273 -160.28903198 46.67477417 C-156.83647901 44.93793786 -153.3912305 43.18713249 -149.94586182 41.43609619 C-147.6611522 40.28546933 -145.37599872 39.13572339 -143.09039307 37.98687744 C-131.67246631 32.23587911 -120.31275018 26.38439458 -109.01226807 20.40631104 C-102.24745658 16.82904567 -95.45789493 13.30232262 -88.63555908 9.83599854 C-87.12546991 9.06499365 -85.61864482 8.28756431 -84.11505127 7.50396729 C-55.83441243 -7.21912867 -30.68930334 -3.95546228 0 0 Z M45.42913818 67.06109619 C45.09913818 67.72109619 44.76913818 68.38109619 44.42913818 69.06109619 C45.56222412 69.39238525 46.69531006 69.72367432 47.86273193 70.06500244 C59.46879909 73.62109853 70.47921048 78.12648278 81.49163818 83.18609619 C82.19294861 83.50819061 82.89425903 83.83028503 83.61682129 84.16213989 C91.17168506 87.64096398 98.69597427 91.1834137 106.21038818 94.74859619 C131.60837203 108.06868083 131.60837203 108.06868083 159.30023193 108.15093994 C161.42941431 107.22419754 163.43301711 106.24398275 165.42913818 105.06109619 C165.73906722 102.05853749 165.73906722 102.05853749 163.96038818 100.20172119 C159.63920144 96.0307127 159.63920144 96.0307127 153.92913818 95.12359619 C153.27042725 95.27312744 152.61171631 95.42265869 151.93304443 95.57672119 C131.16810956 99.59365087 112.46934015 89.74275489 94.01947021 81.63482666 C88.50531361 79.21783676 82.97379296 76.84466638 77.42913818 74.49859619 C76.49400391 74.09366943 75.55886963 73.68874268 74.59539795 73.27154541 C65.06429027 69.24830429 55.82657043 66.54122458 45.42913818 67.06109619 Z M36.42913818 82.06109619 C33.97208123 84.66096823 33.97208123 84.66096823 33.42913818 88.06109619 C35.16357178 88.61023682 35.16357178 88.61023682 36.93304443 89.17047119 C49.76424223 93.30817205 62.31936344 98.02040679 74.85321045 102.972229 C75.82540779 103.35458961 75.82540779 103.35458961 76.81724548 103.74467468 C78.58670161 104.441261 80.35441869 105.14226025 82.12200928 105.84356689 C87.81689929 107.94015751 92.77957073 109.32288422 98.86663818 109.18609619 C100.44251709 109.15902588 100.44251709 109.15902588 102.05023193 109.13140869 C102.835271 109.10820557 103.62031006 109.08500244 104.42913818 109.06109619 C101.86156443 107.34938035 99.4387497 106.03494756 96.66741943 104.70562744 C95.72124756 104.25139404 94.77507568 103.79716064 93.80023193 103.3291626 C92.790896 102.84882568 91.78156006 102.36848877 90.74163818 101.87359619 C89.70523193 101.38036865 88.66882568 100.88714111 87.60101318 100.37896729 C74.41007398 94.12879953 61.40193542 88.34437617 47.42913818 84.06109619 C46.21355225 83.685979 44.99796631 83.31086182 43.74554443 82.92437744 C40.35512525 81.89315523 40.35512525 81.89315523 36.42913818 82.06109619 Z " fill="#010101" transform="translate(465.57086181640625,158.93890380859375)"/>
<path d="M0 0 C0.7115625 0.49242187 1.423125 0.98484375 2.15625 1.4921875 C12.48259429 9.42469743 17.96862861 22.45106088 20 35 C22.12051099 68.84661777 3.34794831 99.27569229 -18.234375 123.89453125 C-19.1551995 124.93062208 -20.07708194 125.96577361 -21 127 C-21.46341797 127.52513184 -21.92683594 128.05026367 -22.40429688 128.59130859 C-33.38760658 140.9946141 -45.33690209 152.25643479 -58.5078125 162.30859375 C-60.83746781 164.08662506 -63.11710673 165.90748015 -65.3671875 167.78515625 C-75.90704775 176.53769372 -87.22823561 184.01377318 -98.69433594 191.49462891 C-100.46921816 192.65345184 -102.23631292 193.82420861 -104 195 C-107.65471639 194.90767032 -109.47599805 192.79457232 -111.90893555 190.25317383 C-112.37211182 189.75712646 -112.83528809 189.2610791 -113.3125 188.75 C-117.27180708 184.63670143 -121.19419192 181.09707632 -126 178 C-125.63881643 175.43340768 -125.35329298 174.29167211 -123.3203125 172.61328125 C-122.59585938 172.18402344 -121.87140625 171.75476563 -121.125 171.3125 C-111.60854939 165.31004779 -103.2004819 157.66862561 -95 150 C-94.05253906 149.11828125 -93.10507812 148.2365625 -92.12890625 147.328125 C-75.90863294 131.88315367 -57.93997604 109.12933416 -56.6640625 85.88671875 C-56.63445069 84.48723185 -56.62177949 83.08729644 -56.625 81.6875 C-56.62661133 80.94910889 -56.62822266 80.21071777 -56.62988281 79.44995117 C-56.83119776 70.39966019 -59.76883354 63.28626757 -65 56 C-65 55.34 -65 54.68 -65 54 C-65.58652344 53.72800781 -66.17304687 53.45601563 -66.77734375 53.17578125 C-68.95688333 52.02280864 -70.65909709 50.74557711 -72.5625 49.1875 C-96.67522321 30.96998302 -129.83534829 34.82457108 -158 37 C-159.24092949 33.27721153 -158.43222119 32.52903423 -157 29 C-155.97289224 20.34124274 -157.05739528 14.05180549 -162.40234375 7.203125 C-167.32717823 1.76052064 -173.60327816 -1.54429969 -180 -5 C-179.67 -5.99 -179.34 -6.98 -179 -8 C-177.11523438 -8.81201172 -177.11523438 -8.81201172 -174.59375 -9.4296875 C-173.63887695 -9.66526367 -172.68400391 -9.90083984 -171.70019531 -10.14355469 C-170.64413086 -10.38493164 -169.58806641 -10.62630859 -168.5 -10.875 C-167.40010742 -11.1318457 -166.30021484 -11.38869141 -165.16699219 -11.65332031 C-150.58226256 -14.92892699 -135.80970564 -17.04296827 -121 -19 C-119.49977295 -19.20133545 -119.49977295 -19.20133545 -117.96923828 -19.40673828 C-78.8740847 -24.4634336 -33.22616927 -23.40934653 0 0 Z M-108.9375 3.125 C-110.36066991 5.63647631 -110.42674516 7.15503228 -110 10 C-108.91666667 11.91666667 -108.91666667 11.91666667 -107 13 C-104.15503228 13.42674516 -102.63647631 13.36066991 -100.125 11.9375 C-98.35217817 8.88430685 -99.30764694 6.33588292 -100 3 C-104.61009488 1.82991255 -104.61009488 1.82991255 -108.9375 3.125 Z M-26 18 C-26.25652344 18.96421875 -26.51304687 19.9284375 -26.77734375 20.921875 C-29.72448608 30.98322022 -29.72448608 30.98322022 -33.1953125 33.75 C-35.45006793 34.70250394 -37.63703666 35.37438538 -40 36 C-41.34735397 36.6378554 -42.68565722 37.29663289 -44 38 C-43.18015625 38.268125 -42.3603125 38.53625 -41.515625 38.8125 C-31.61582252 42.41242818 -31.61582252 42.41242818 -29.375 46.9375 C-28.87218923 48.27578926 -28.41104551 49.63073801 -28 51 C-27.5875 52.155 -27.175 53.31 -26.75 54.5 C-26.5025 55.325 -26.255 56.15 -26 57 C-23.58588167 54.58588167 -23.34329446 52.8893607 -22.4375 49.625 C-20.65369444 44.47552358 -20.65369444 44.47552358 -17.87890625 42.45703125 C-15.60941656 41.48439281 -13.35786879 40.72645605 -11 40 C-9.65490498 39.35739467 -8.3174004 38.6976234 -7 38 C-7.81984375 37.731875 -8.6396875 37.46375 -9.484375 37.1875 C-19.38522285 33.58719169 -19.38522285 33.58719169 -21.625 29.125 C-22.3984375 27.0703125 -22.3984375 27.0703125 -23 25 C-23.21914063 24.31679687 -23.43828125 23.63359375 -23.6640625 22.9296875 C-24.15871519 21.30063132 -24.58708316 19.65166734 -25 18 C-25.33 18 -25.66 18 -26 18 Z M-38 107 C-38.66 108.65 -39.32 110.3 -40 112 C-39.34 112.66 -38.68 113.32 -38 114 C-35.89179203 113.6814823 -35.89179203 113.6814823 -34 113 C-33.3185177 111.10820797 -33.3185177 111.10820797 -33 109 C-33.66 108.34 -34.32 107.68 -35 107 C-35.99 107 -36.98 107 -38 107 Z " fill="#000000" transform="translate(808,211)"/>
<path d="M0 0 C-0.4309253 3.66286501 -0.87780844 7.29949724 -1.51171875 10.93359375 C-3.02343588 19.69297596 -4.29545744 29.04745505 -2.3828125 37.8359375 C-1.3503017 42.65903587 -1.3644469 44.99560985 -4.06640625 49.265625 C-5.94881131 51.68258241 -7.93926794 53.99886948 -9.9375 56.3203125 C-22.42245462 70.90430011 -29.06504588 87.82917415 -28 107 C-26.71417543 115.04525098 -22.13112947 121.78372273 -15.7421875 126.7578125 C3.42668043 139.02342253 28.19960025 138.96763239 49.96875 135.4375 C52.70216258 135.04298684 55.24469396 134.91775206 58 135 C59 137 59 137 58.40625 139.06640625 C58.1071875 139.89011719 57.808125 140.71382812 57.5 141.5625 C55.64105939 147.54381354 55.21263849 152.59522283 58.19140625 158.26953125 C59.07123384 159.66071163 59.98568404 161.03091671 60.94140625 162.37109375 C62 164 62 164 62 166 C62.56203125 166.26941406 63.1240625 166.53882813 63.703125 166.81640625 C66.14404396 168.07422673 68.43949384 169.45379261 70.75 170.9375 C71.54921875 171.44152344 72.3484375 171.94554687 73.171875 172.46484375 C73.77515625 172.97144531 74.3784375 173.47804688 75 174 C75 174.99 75 175.98 75 177 C53.83299114 182.98080739 32.79902048 188.79631009 11 192 C9.90606934 192.16081055 8.81213867 192.32162109 7.68505859 192.48730469 C-26.64667549 197.32557028 -69.51151664 199.70274705 -99.00390625 177.765625 C-108.34965561 169.68733196 -115.04203653 160.41908258 -117 148 C-119.05876133 116.99980541 -102.16239617 90.49769587 -82.65234375 68.0234375 C-81.76893359 67.01500747 -80.88485212 66.00716501 -80 65 C-79.23816406 64.12601562 -78.47632813 63.25203125 -77.69140625 62.3515625 C-69.69565938 53.31537085 -61.2169042 44.79008807 -52 37 C-51.06929688 36.19175781 -50.13859375 35.38351562 -49.1796875 34.55078125 C-37.26832881 24.25144391 -24.69646504 15.02334101 -11.625 6.25 C-10.70267578 5.62891357 -9.78035156 5.00782715 -8.83007812 4.36791992 C-7.97091797 3.7979126 -7.11175781 3.22790527 -6.2265625 2.640625 C-5.45908691 2.13047852 -4.69161133 1.62033203 -3.90087891 1.09472656 C-2 0 -2 0 0 0 Z M-54 67 C-54 68.65 -54 70.3 -54 72 C-51.525 72.495 -51.525 72.495 -49 73 C-48.34 71.68 -47.68 70.36 -47 69 C-48.37485532 67.45833358 -48.37485532 67.45833358 -50 66 C-52.0745356 65.8509288 -52.0745356 65.8509288 -54 67 Z M-72 119 C-72.31130859 120.24716797 -72.31130859 120.24716797 -72.62890625 121.51953125 C-75.09393451 130.21417069 -75.09393451 130.21417069 -77.6484375 132.4296875 C-79.4375 133.1875 -79.4375 133.1875 -83 134 C-84.4540625 134.3403125 -84.4540625 134.3403125 -85.9375 134.6875 C-86.618125 134.790625 -87.29875 134.89375 -88 135 C-85.44134391 136.70577072 -83.84005237 137.43574141 -81 138.3125 C-78.13917946 139.36565921 -77.12900348 139.84519582 -75.125 142.25 C-73.81649944 145.44855692 -72.85323949 148.65267585 -72 152 C-69.9783043 149.26291403 -69.9783043 149.26291403 -69.31640625 146.87890625 C-68.01327539 142.87498605 -67.09112669 140.59516001 -63.29296875 138.5234375 C-60.54680399 137.54341978 -57.83019692 136.69778993 -55 136 C-57.54193695 134.65394148 -59.60650348 133.8456173 -62.4375 133.125 C-65.36883257 131.94362244 -66.0105028 130.98075362 -67.5625 128.13671875 C-68.8113957 125.11737148 -69.95824671 122.09645564 -71 119 C-71.33 119 -71.66 119 -72 119 Z M-23.75 160.125 C-25.53620464 162.80430696 -25.26804587 164.85046107 -25 168 C-24.67 168.66 -24.34 169.32 -24 170 C-20.58343976 170.16677282 -20.58343976 170.16677282 -17 170 C-14.6278031 168.05541686 -14.6278031 168.05541686 -14.6875 164.5 C-14.790625 163.345 -14.89375 162.19 -15 161 C-18.19240645 158.87172903 -20.28774614 157.89926538 -23.75 160.125 Z " fill="#000000" transform="translate(332,445)"/>
<path d="M0 0 C10.76844451 0.3389799 10.76844451 0.3389799 14.19067383 3.76904297 C16.4922818 7.05502391 17.97033048 10.72018175 19.46118164 14.42919922 C21.76650221 19.70288352 24.8886038 24.55039071 27.82348633 29.49169922 C29.11417521 31.73015063 30.40057449 33.97108042 31.68286133 36.21435547 C32.3319043 37.34760254 32.98094727 38.48084961 33.6496582 39.6484375 C34.30514648 40.79296387 34.96063477 41.93749023 35.63598633 43.11669922 C38.27766819 47.72325647 40.92438599 52.32690348 43.57348633 56.92919922 C44.5117627 58.56091064 44.5117627 58.56091064 45.46899414 60.22558594 C49.31985403 66.90116603 53.25929756 73.50047218 57.41333008 79.99169922 C58.63598633 82.11669922 58.63598633 82.11669922 58.63598633 84.11669922 C59.29598633 84.11669922 59.95598633 84.11669922 60.63598633 84.11669922 C60.93762695 82.96621094 60.93762695 82.96621094 61.24536133 81.79248047 C63.20805934 76.60456241 66.04412028 72.05509626 68.88598633 67.30419922 C73.95020252 58.73575561 78.91878495 50.12510724 83.76098633 41.42919922 C84.91835775 39.35487966 86.07590841 37.28066009 87.23364258 35.20654297 C87.79712402 34.1970459 88.36060547 33.18754883 88.94116211 32.14746094 C91.67801034 27.25330451 94.43089416 22.36853077 97.19848633 17.49169922 C97.91319092 16.22193237 97.91319092 16.22193237 98.64233398 14.92651367 C99.53466329 13.35882662 100.44621507 11.80187283 101.37963867 10.25830078 C102.66267055 8.16084094 102.66267055 8.16084094 103.58374023 5.99853516 C104.74281057 3.75725141 105.55527349 2.56617199 107.63598633 1.11669922 C112.41008087 0.23017601 117.05035563 0.41360273 121.88598633 0.61669922 C123.19051758 0.63990234 124.49504883 0.66310547 125.83911133 0.68701172 C135.42599832 0.90671121 135.42599832 0.90671121 136.63598633 2.11669922 C136.73235471 3.90097109 136.75786086 5.68909574 136.75624084 7.47596741 C136.75830284 9.21975929 136.75830284 9.21975929 136.76040649 10.9987793 C136.75681122 12.28558594 136.75321594 13.57239258 136.74951172 14.89819336 C136.74922985 16.25792946 136.74938758 17.61766572 136.74995422 18.97740173 C136.7502422 22.679717 136.74434545 26.38200014 136.73738027 30.08430791 C136.73114675 33.94938703 136.73054293 37.8144668 136.72935486 41.67955017 C136.72624153 49.00354604 136.71802813 56.32752706 136.70800537 63.65151638 C136.69684427 71.98753369 136.69133379 80.3235517 136.68630993 88.65957463 C136.67584552 105.81195957 136.65750003 122.96432404 136.63598633 140.11669922 C126.40598633 140.11669922 116.17598633 140.11669922 105.63598633 140.11669922 C104.54883333 115.92754493 104.54883333 115.92754493 104.63598633 104.36669922 C104.7366097 90.93851017 104.16840863 77.53204196 103.63598633 64.11669922 C103.22461426 64.8642749 102.81324219 65.61185059 102.3894043 66.38208008 C97.8427898 74.64148997 93.28823244 82.89648173 88.7253418 91.14691162 C88.01716028 92.42745522 87.30914336 93.70808987 86.60131836 94.98883057 C84.41084653 98.95164426 82.21277446 102.91016361 80.01098633 106.86669922 C79.45652832 107.86950928 78.90207031 108.87231934 78.33081055 109.90551758 C76.79384116 112.65970142 75.21841409 115.38846334 73.63598633 118.11669922 C73.16386719 118.99374512 72.69174805 119.87079102 72.20532227 120.77441406 C68.8187338 126.60943001 68.8187338 126.60943001 65.66870117 127.96044922 C63.41346108 128.33330177 61.41707547 128.37190463 59.13598633 128.24169922 C58.37278076 128.21124512 57.6095752 128.18079102 56.82324219 128.14941406 C53.56972087 127.87661312 51.27757159 127.54842014 48.54614258 125.71044922 C46.88678535 123.28634475 45.80640531 120.81375167 44.63598633 118.11669922 C43.58329489 116.14709596 42.48548021 114.20647106 41.38500977 112.26318359 C40.08875036 109.97065914 38.82076701 107.66389268 37.55395508 105.35498047 C32.10402572 95.50179693 26.33112832 85.82924288 20.63598633 76.11669922 C18.32598633 72.15669922 16.01598633 68.19669922 13.63598633 64.11669922 C13.30598633 89.19669922 12.97598633 114.27669922 12.63598633 140.11669922 C2.40598633 140.11669922 -7.82401367 140.11669922 -18.36401367 140.11669922 C-19.48905338 129.99134188 -19.48905338 129.99134188 -19.45303345 125.14379883 C-19.44743912 124.04744614 -19.44184479 122.95109344 -19.43608093 121.82151794 C-19.42470596 120.6492012 -19.41333099 119.47688446 -19.40161133 118.26904297 C-19.39361008 117.01112442 -19.38560883 115.75320587 -19.37736511 114.45716858 C-19.35534349 111.03413957 -19.32664815 107.61119753 -19.29641008 104.18823242 C-19.2655825 100.59995947 -19.24006791 97.01164792 -19.2137146 93.42333984 C-19.16867218 87.40816798 -19.11919597 81.39304466 -19.06713867 75.37792969 C-19.00696448 68.41763997 -18.95424817 61.4573229 -18.90537035 54.49694538 C-18.85810986 47.79546102 -18.80528416 41.09403133 -18.75001144 34.39260864 C-18.72661091 31.54095518 -18.70524305 28.68929706 -18.68550491 25.83761597 C-18.65776143 21.86808748 -18.62192196 17.89865536 -18.58520508 13.92919922 C-18.57787857 12.74068863 -18.57055206 11.55217804 -18.56300354 10.32765198 C-18.55176956 9.25385788 -18.54053558 8.18006378 -18.52896118 7.07373047 C-18.52120981 6.13505127 -18.51345844 5.19637207 -18.50547218 4.22924805 C-18.09540763 -1.89467751 -4.59936963 0.06348692 0 0 Z " fill="#000000" transform="translate(455.364013671875,663.88330078125)"/>
<path d="M0 0 C2.46837538 1.41367823 4.95230265 2.7942863 7.44458008 4.1652832 C10.55172612 5.88402702 13.56507142 7.67434936 16.51098633 9.66137695 C17.24188477 10.14993164 17.9727832 10.63848633 18.72583008 11.1418457 C20.57348633 12.47387695 20.57348633 12.47387695 22.57348633 14.47387695 C23.04946596 18.12305412 23.0745211 19.81179529 20.82348633 22.78637695 C18.49137723 24.53545878 17.43375038 25.1660288 14.57348633 25.47387695 C11.96435547 24.49633789 11.96435547 24.49633789 9.04614258 22.95825195 C7.98282715 22.39944336 6.91951172 21.84063477 5.82397461 21.26489258 C0.82815008 18.51219852 -4.08975588 15.64429867 -8.98901367 12.72387695 C-38.94058343 -6.37207593 -38.94058343 -6.37207593 -73.11010742 -8.3190918 C-82.5670749 -5.08171507 -90.7250758 2.21128488 -98.71557617 8.0480957 C-103.06293528 11.22090203 -107.45572165 14.32407083 -111.86401367 17.41137695 C-117.94822833 21.68202081 -123.95345358 26.04925363 -129.92651367 30.47387695 C-137.94840399 36.41139019 -146.03910913 42.234998 -154.23022461 47.93676758 C-156.55801232 49.56590847 -158.87098505 51.21492403 -161.18432617 52.86450195 C-179.61135047 65.89238408 -195.84905345 72.13811113 -218.45385742 74.26293945 C-219.97505404 74.41245327 -221.49617611 74.56272723 -223.01722717 74.7137146 C-226.9914278 75.1060111 -230.96660407 75.48736899 -234.94207764 75.86651611 C-238.16189443 76.17542573 -241.38092962 76.49205399 -244.59995174 76.80912209 C-287.40938487 81.02472413 -287.40938487 81.02472413 -296.42651367 80.47387695 C-297.48999023 80.41458008 -298.5534668 80.3552832 -299.64916992 80.29418945 C-312.90529399 78.67793475 -324.45118702 72.05545841 -336.20632935 66.10110474 C-341.27411301 63.53505313 -346.39809006 61.11155296 -351.55151367 58.72387695 C-358.64228905 55.40002792 -365.58114759 51.8284399 -372.49072266 48.14404297 C-377.65597704 45.39099954 -382.86344175 42.74741497 -388.11401367 40.16137695 C-404.26795314 32.1070649 -404.26795314 32.1070649 -407.42651367 24.47387695 C-408.30483199 19.73095802 -407.4091112 16.93588453 -404.98901367 12.91137695 C-399.60246931 5.48907286 -392.20043555 1.63129841 -383.42651367 -0.52612305 C-379.34978018 -0.97430516 -375.27782447 -0.96237007 -371.18041992 -0.96557617 C-365.89774407 -1.08892368 -363.36841436 -1.71868575 -359.42651367 -5.52612305 C-357.32885742 -6.7565918 -357.32885742 -6.7565918 -355.36401367 -7.71362305 C-354.71303711 -8.03717773 -354.06206055 -8.36073242 -353.39135742 -8.6940918 C-349.80054955 -10.21465259 -346.79323063 -10.63133432 -342.90698242 -10.4128418 C-342.04911133 -10.38254883 -341.19124023 -10.35225586 -340.30737305 -10.32104492 C-338.52261083 -10.24986151 -336.73851839 -10.1589448 -334.95581055 -10.04760742 C-330.12984317 -9.9140541 -327.2758407 -10.141457 -323.57104492 -13.3972168 C-322.52101793 -14.4383231 -321.47260817 -15.48106548 -320.42651367 -16.52612305 C-312.09191739 -21.72135473 -302.22682635 -21.94365301 -292.82641602 -19.98413086 C-286.29152024 -18.40208329 -279.85450362 -16.49254821 -273.42651367 -14.52612305 C-270.74104582 -13.70626959 -268.05393913 -12.89390535 -265.36401367 -12.08862305 C-264.32116211 -11.75991211 -263.27831055 -11.43120117 -262.20385742 -11.0925293 C-257.49176159 -10.13155335 -254.76457963 -11.18566964 -250.83276367 -13.7409668 C-249.52510989 -14.64047409 -248.2231355 -15.54828506 -246.92651367 -16.46362305 C-237.89091765 -22.78854027 -237.89091765 -22.78854027 -234.42651367 -23.52612305 C-231.34838867 -22.5144043 -231.34838867 -22.5144043 -228.17651367 -20.83862305 C-226.5909668 -20.02844727 -226.5909668 -20.02844727 -224.97338867 -19.2019043 C-222.42651367 -17.52612305 -222.42651367 -17.52612305 -221.42651367 -14.52612305 C-222.23088867 -14.05045898 -222.23088867 -14.05045898 -223.05151367 -13.56518555 C-224.76224066 -12.5466277 -226.46877751 -11.52102044 -228.17260742 -10.4909668 C-229.88638833 -9.4561147 -231.60128211 -8.42298765 -233.32543945 -7.40551758 C-250.60994693 2.64497377 -250.60994693 2.64497377 -260.42651367 19.47387695 C-260.94775946 22.16997586 -261.22673861 24.72696989 -261.42651367 27.47387695 C-254.45775718 28.18659069 -248.57380706 27.52121172 -242.06323242 24.94262695 C-241.37468674 24.67690887 -240.68614105 24.4111908 -239.97673035 24.13742065 C-232.67099487 21.26660501 -225.56432346 17.97306036 -218.46118164 14.63903809 C-168.69191966 -8.65715403 -168.69191966 -8.65715403 -149.42651367 -6.52612305 C-146.86401367 -4.90112305 -146.86401367 -4.90112305 -145.42651367 -2.52612305 C-144.86401367 0.47387695 -144.86401367 0.47387695 -145.42651367 3.47387695 C-150.40524595 9.10855452 -158.09205846 9.12288822 -165.11401367 10.1887207 C-175.58789524 12.01195194 -184.79709218 16.13515758 -194.42651367 20.47387695 C-195.2619873 20.84798706 -196.09746094 21.22209717 -196.95825195 21.60754395 C-203.81192346 24.67970911 -210.64788717 27.79064793 -217.47509766 30.92114258 C-251.54170067 46.52289986 -251.54170067 46.52289986 -265.42651367 41.47387695 C-266.2128418 40.92602539 -266.99916992 40.37817383 -267.80932617 39.8137207 C-271.29406289 38.02974355 -272.79189856 38.67311924 -276.48901367 39.78637695 C-294.2759305 44.38299591 -309.05178213 37.93657213 -325.09765625 30.73168945 C-354.0478216 15.88636623 -354.0478216 15.88636623 -385.05151367 15.91137695 C-386.16526367 16.42700195 -387.27901367 16.94262695 -388.42651367 17.47387695 C-389.91151367 17.96887695 -389.91151367 17.96887695 -391.42651367 18.47387695 C-391.42651367 19.46387695 -391.42651367 20.45387695 -391.42651367 21.47387695 C-376.05447241 29.56009238 -360.60890085 37.48933519 -345.07885742 45.26782227 C-341.63457391 46.99490702 -338.19465518 48.73049931 -334.75463867 50.46606445 C-332.52573437 51.5837753 -330.296577 52.70098168 -328.06713867 53.81762695 C-327.05862854 54.32805542 -326.05011841 54.83848389 -325.01104736 55.36437988 C-303.86450778 65.90480179 -284.32552975 65.99587316 -261.1159668 62.82250977 C-253.94115868 61.8565852 -246.77533955 61.11348922 -239.56323242 60.48950195 C-238.59599243 60.40537048 -237.62875244 60.32123901 -236.63220215 60.23455811 C-232.70811048 59.89545406 -228.78389825 59.55910769 -224.85821533 59.2388916 C-203.14861862 57.46543555 -187.98235153 53.58538452 -170.37182617 40.3918457 C-166.52323362 37.52017424 -162.5854906 34.79696593 -158.61401367 32.09887695 C-152.06305529 27.63653709 -145.62237835 23.03739175 -139.20849609 18.38061523 C-133.45231958 14.20428741 -127.65418676 10.09181798 -121.83447266 6.00463867 C-117.32308093 2.83016895 -112.84817483 -0.39044255 -108.38891602 -3.63769531 C-67.77533652 -33.19219796 -41.17444581 -23.78708492 0 0 Z M-310.42651367 -4.52612305 C-307.68414434 -1.78375372 -304.4544775 -0.95098539 -300.86401367 0.29418945 C-299.74337524 0.68947342 -299.74337524 0.68947342 -298.60009766 1.09274292 C-297.02073559 1.64846806 -295.44038365 2.20138675 -293.85913086 2.75170898 C-291.43384112 3.59632514 -289.01203485 4.45037861 -286.59057617 5.3059082 C-285.05691891 5.84422991 -283.52307099 6.38200884 -281.98901367 6.91918945 C-281.26190186 7.1754007 -280.53479004 7.43161194 -279.78564453 7.69558716 C-276.19109996 9.01624843 -276.19109996 9.01624843 -272.42651367 9.47387695 C-269.46415672 5.84064007 -269.46415672 5.84064007 -268.42651367 1.47387695 C-273.37461679 0.00626841 -278.32617704 -1.44858459 -283.28100586 -2.89331055 C-285.07612875 -3.42277783 -286.86538863 -3.97206976 -288.65307617 -4.52612305 C-295.90836126 -6.70061771 -303.53034921 -8.46903257 -310.42651367 -4.52612305 Z M-344.05151367 3.47387695 C-345.0544043 3.65950195 -346.05729492 3.84512695 -347.09057617 4.03637695 C-348.24686523 4.25293945 -348.24686523 4.25293945 -349.42651367 4.47387695 C-347.07495584 6.82543479 -345.11201145 7.55411231 -342.02807617 8.79418945 C-340.91779053 9.2435083 -339.80750488 9.69282715 -338.66357422 10.15576172 C-337.47159424 10.63198975 -336.27961426 11.10821777 -335.05151367 11.59887695 C-333.83955322 12.08735107 -332.62759277 12.5758252 -331.37890625 13.07910156 C-328.90856328 14.07384543 -326.43728872 15.06627891 -323.96508789 16.05639648 C-320.77419844 17.33460154 -317.58610839 18.61945453 -314.39916992 19.9074707 C-312.63759486 20.61746273 -310.87588555 21.32712179 -309.11401367 22.03637695 C-308.31624512 22.35815918 -307.51847656 22.67994141 -306.6965332 23.01147461 C-296.0927296 27.25528877 -288.53542883 28.35396607 -277.42651367 25.47387695 C-277.42651367 24.48387695 -277.42651367 23.49387695 -277.42651367 22.47387695 C-278.48483398 22.08458008 -279.5431543 21.6952832 -280.63354492 21.29418945 C-281.35203613 21.02960937 -282.07052734 20.7650293 -282.81079102 20.49243164 C-284.46050542 19.88535797 -286.11058394 19.27927306 -287.76098633 18.67407227 C-292.93286544 16.77412175 -298.09259708 14.84562643 -303.24291992 12.88793945 C-304.41169678 12.44691895 -305.58047363 12.00589844 -306.78466797 11.55151367 C-309.07379357 10.68735088 -311.36055946 9.81690266 -313.64453125 8.93920898 C-328.50929548 3.35043985 -328.50929548 3.35043985 -344.05151367 3.47387695 Z " fill="#010101" transform="translate(808.426513671875,572.526123046875)"/>
<path d="M0 0 C13.73748944 11.55774019 21.09814146 28.66432551 23.6875 46.125 C24.86147034 60.68223228 23.14730876 75.07358158 16 88 C15.56945312 88.82628906 15.13890625 89.65257812 14.6953125 90.50390625 C5.3321186 107.40526473 -9.83920215 118.30725247 -28 124 C-49.20604513 129.67376382 -72.44530187 127.17864382 -91.7109375 116.98046875 C-107.16684213 107.67388484 -118.96002913 93.62065814 -124.21875 76.2578125 C-129.43349962 54.51230658 -126.67785081 33.16481924 -115 14 C-103.32973566 -2.73280061 -87.27011631 -12.68379795 -67.3203125 -16.75 C-42.7597123 -20.61950375 -19.59568403 -15.50187818 0 0 Z M-83.25 25.125 C-92.10665842 35.53731898 -93.74473618 47.73212179 -93.17480469 60.87158203 C-92.2972034 71.55723573 -86.43631789 81.06856012 -78.75 88.3125 C-68.21672883 96.72000896 -55.97456059 98.11488264 -43 97 C-32.16543706 94.71835317 -22.17860797 88.22180295 -16 79 C-9.7570321 66.7081461 -7.83850636 53.69775482 -11.5625 40.25 C-15.30466921 29.45679618 -22.23709416 21.00253611 -32.0625 15.1875 C-38.40608264 12.62307298 -44.04016453 11.63727609 -50.8125 11.6875 C-52.0044397 11.69595947 -52.0044397 11.69595947 -53.22045898 11.70458984 C-65.58243307 11.95978849 -74.63123181 16.21571154 -83.25 25.125 Z " fill="#000000" transform="translate(737,680)"/>
<path d="M0 0 C0.72316406 0.63679687 1.44632812 1.27359375 2.19140625 1.9296875 C3.35349609 2.88488281 3.35349609 2.88488281 4.5390625 3.859375 C6.19140625 5.9296875 6.19140625 5.9296875 6.1640625 8.46875 C5.0478193 11.29297977 3.98360009 12.41540282 1.62890625 14.3046875 C0.9121875 14.89507813 0.19546875 15.48546875 -0.54296875 16.09375 C-1.290625 16.69960938 -2.03828125 17.30546875 -2.80859375 17.9296875 C-4.25169789 19.17321341 -5.6894312 20.42300592 -7.12109375 21.6796875 C-7.75660156 22.23140625 -8.39210938 22.783125 -9.046875 23.3515625 C-10.6936455 24.82671834 -12.26235582 26.35014598 -13.80859375 27.9296875 C-17.14449745 26.45462804 -19.51972729 24.52172318 -22.24609375 22.1171875 C-33.62508763 13.03714733 -45.69899159 11.38403468 -59.80859375 12.9296875 C-69.96597217 14.82098469 -78.03296768 19.73652518 -84.12109375 28.1171875 C-91.65898388 40.47095188 -93.17530014 53.67449129 -89.8359375 67.5859375 C-88.3666514 72.36810064 -86.26934778 76.59291307 -83.80859375 80.9296875 C-83.36193359 81.99316406 -83.36193359 81.99316406 -82.90625 83.078125 C-81.5185488 85.41894481 -80.27419483 85.85042256 -77.80859375 86.9296875 C-76.42470738 87.89625405 -75.05016786 88.8762952 -73.68359375 89.8671875 C-63.90751839 96.3371144 -53.2658877 97.17028621 -41.80859375 95.9296875 C-33.3336264 94.03958687 -25.48873291 89.9882411 -19.62109375 83.5546875 C-16.80859375 80.9296875 -16.80859375 80.9296875 -14.37109375 80.6171875 C-11.23910002 82.22137941 -9.31546193 84.25578818 -6.921875 86.80859375 C-2.87069376 90.87475163 1.70848859 94.35470253 6.19140625 97.9296875 C5.50263318 104.28672423 1.41697761 107.62060845 -3.23291016 111.66748047 C-20.47357743 125.47817923 -42.08980662 128.28913026 -63.44287109 126.21435547 C-82.4741498 123.92431719 -99.68951295 113.98328683 -111.62109375 99.1171875 C-124.76308016 82.01655354 -127.74011483 62.19435615 -125.12109375 41.2421875 C-121.78274431 22.67261871 -112.43430385 7.29069528 -97.53515625 -4.1875 C-68.166239 -24.46804171 -27.3027694 -22.39996567 0 0 Z " fill="#000000" transform="translate(412.80859375,680.0703125)"/>
<path d="M0 0 C-3.61564623 5.4544606 -8.7626244 8.46665174 -14.125 12 C-16.12229546 13.34065936 -18.11837281 14.68313506 -20.11328125 16.02734375 C-21.1079541 16.69620605 -22.10262695 17.36506836 -23.12744141 18.05419922 C-36.34162505 27.00516332 -48.8210743 36.69429918 -61 47 C-61.65049316 47.5460791 -62.30098633 48.0921582 -62.97119141 48.65478516 C-69.28977834 53.95957495 -75.47371043 59.27868255 -81.21484375 65.21484375 C-83.04546715 67.04546715 -84.95899857 68.70624439 -86.9375 70.375 C-95.28898325 77.5846789 -102.13296517 86.41038694 -109 95 C-109.78117187 95.95132813 -110.56234375 96.90265625 -111.3671875 97.8828125 C-125.13283593 115.07887811 -134.9622509 134.1862314 -142 155 C-142.32226562 155.95132813 -142.64453125 156.90265625 -142.9765625 157.8828125 C-143.65955965 159.91903766 -144.33139753 161.959003 -145 164 C-145.99 164 -146.98 164 -148 164 C-149.3787598 126.9649797 -133.04913256 95.58871423 -108.375 68.625 C-106.59484475 66.73906741 -104.80332686 64.86378826 -103 63 C-102.09507812 62.05511719 -101.19015625 61.11023438 -100.2578125 60.13671875 C-94.19378661 53.92667523 -87.83246497 48.34512565 -81 43 C-79.98035156 42.18660156 -78.96070313 41.37320313 -77.91015625 40.53515625 C-18.04505521 -6.83134233 -18.04505521 -6.83134233 0 0 Z " fill="#020202" transform="translate(341,417)"/>
<path d="M0 0 C0.66 0 1.32 0 2 0 C4.27546537 23.09175966 -8.60546823 46.67315919 -22.56933594 64.27441406 C-26.89186269 69.48800094 -31.55599168 74.38526876 -36.28027344 79.23339844 C-37.88939937 80.88638471 -39.48106989 82.55449291 -41.0703125 84.2265625 C-52.33985143 95.94643453 -65.27538166 105.35416988 -79 114 C-79.66902344 114.42168457 -80.33804688 114.84336914 -81.02734375 115.27783203 C-89.02456071 120.26475442 -97.15901554 124.73999999 -105.75 128.625 C-106.50063721 128.96805176 -107.25127441 129.31110352 -108.0246582 129.66455078 C-111.81437885 131.31832541 -114.77640768 132.44896454 -119 132 C-117.60242224 127.22634584 -115.33531453 125.34140309 -111.375 122.4375 C-110.80523438 122.01331787 -110.23546875 121.58913574 -109.6484375 121.15209961 C-107.77294692 119.75786032 -105.88681599 118.37886352 -104 117 C-90.90251637 107.33451208 -78.45519315 97.27201669 -66.46875 86.25 C-64.40728668 84.37119799 -62.3148187 82.55281246 -60.1875 80.75 C-51.10151618 72.82313346 -42.5851163 64.15442955 -35.12890625 54.6796875 C-33.68098527 52.85716678 -32.18621031 51.07111526 -30.65234375 49.3203125 C-18.72733632 35.6755338 -10.08920751 20.21900965 -2.86279297 3.66967773 C-2 2 -2 2 0 0 Z " fill="#010101" transform="translate(839,284)"/>
<path d="M0 0 C16.8810593 0.01034759 35.21342737 1.94829605 47.84765625 14.1484375 C53.84151614 20.99492714 56.08630378 29.64368155 55.5625 38.625 C52.56839756 62.88059388 33.02803635 83.31507092 14.7890625 97.90625 C11.23146856 100.59460814 7.62126834 103.17559115 3.9375 105.6875 C3.01686768 106.32546509 3.01686768 106.32546509 2.07763672 106.97631836 C-1.963553 109.66881138 -5.58125246 111.13997654 -10.3125 112.25 C-10.3125 110.93 -10.3125 109.61 -10.3125 108.25 C-8.3325 107.26 -8.3325 107.26 -6.3125 106.25 C-6.3125 105.59 -6.3125 104.93 -6.3125 104.25 C-4.87890625 102.875 -4.87890625 102.875 -2.875 101.25 C14.83907902 86.1153395 33.68478221 62.70769066 35.90625 38.90625 C36.19651429 31.84315238 34.41663047 26.19146574 30.125 20.5625 C23.29412013 13.2496359 13.86829847 11.3350695 4.49609375 9.1640625 C0.10754839 8.11081161 -4.0658231 6.76667032 -8.3125 5.25 C-7.0454291 -0.36131397 -5.72228889 0.07375668 0 0 Z " fill="#020202" transform="translate(669.3125,265.75)"/>
<path d="M0 0 C33.15962597 1.85114417 64.77239242 14.28404723 94.7578125 27.73583984 C97.46257338 28.94058244 100.17832188 30.110606 102.90625 31.26171875 C103.660271 31.58172852 104.41429199 31.90173828 105.19116211 32.23144531 C107.09716913 33.03917729 109.00363814 33.84581887 110.91015625 34.65234375 C114.14958788 36.26980683 116.08675094 37.59622813 117.53125 40.9296875 C117.78579199 43.81449669 117.05805733 45.51000358 115.71875 48.0546875 C112.41877496 50.25467086 111.05686316 50.31814876 107.23046875 49.71875 C102.27751433 48.40925972 97.71342396 46.11798865 93.09344482 43.93728638 C89.88050711 42.42464806 86.64819397 40.95494441 83.4140625 39.48828125 C82.76313629 39.19296005 82.11221008 38.89763885 81.44155884 38.59336853 C55.78318044 27.04082133 28.6835978 18.47161424 0.71875 15.0546875 C-1.1319948 10.38759191 -2.78967872 6.09329308 -3.28125 1.0546875 C-2.28125 0.0546875 -2.28125 0.0546875 0 0 Z " fill="#010101" transform="translate(724.28125,437.9453125)"/>
<path d="M0 0 C0.99 0 1.98 0 3 0 C3.2475 1.15757812 3.495 2.31515625 3.75 3.5078125 C5.65075601 11.87411791 5.65075601 11.87411791 10.82226562 18.32958984 C14.28319733 19.99387641 17.80073503 20.97017305 21.515625 21.89453125 C25 23 25 23 26.484375 25.13671875 C26.65453125 25.75160156 26.8246875 26.36648438 27 27 C25.31970703 27.58007812 25.31970703 27.58007812 23.60546875 28.171875 C22.13257091 28.69723984 20.65992774 29.22331905 19.1875 29.75 C18.44951172 30.00265625 17.71152344 30.2553125 16.95117188 30.515625 C11.4730422 32.48396005 11.4730422 32.48396005 8 37 C7.03018855 39.4149671 6.1402993 41.78911025 5.3125 44.25 C4.97508789 45.22453125 4.97508789 45.22453125 4.63085938 46.21875 C4.08083773 47.81030199 3.53953212 49.40486156 3 51 C1.68 51 0.36 51 -1 51 C-1.30292969 49.96359375 -1.60585937 48.9271875 -1.91796875 47.859375 C-2.34025001 46.4893069 -2.76347727 45.11953013 -3.1875 43.75 C-3.48237305 42.72712891 -3.48237305 42.72712891 -3.78320312 41.68359375 C-5.26323127 36.99304303 -6.7858734 34.54666643 -11 32 C-14.1199197 30.85972478 -17.25003355 29.99999083 -20.453125 29.125 C-23 28 -23 28 -23.859375 25.875 C-23.90578125 25.25625 -23.9521875 24.6375 -24 24 C-23.34773437 23.74605469 -22.69546875 23.49210937 -22.0234375 23.23046875 C-12.23805877 19.87279995 -12.23805877 19.87279995 -5 13 C-4.22522109 10.96152998 -3.5195347 8.89581884 -2.875 6.8125 C-1.08963093 1.08963093 -1.08963093 1.08963093 0 0 Z " fill="#010101" transform="translate(237,392)"/>
<path d="M0 0 C0.99 0.33 1.98 0.66 3 1 C3.78125 3.328125 3.78125 3.328125 4.5 6.25 C5.72474356 9.9874119 6.41570992 11.60231123 9.703125 13.83984375 C12.44058032 15.05064129 15.14359891 16.10860587 18 17 C18 18.32 18 19.64 18 21 C17.31292969 21.23074219 16.62585938 21.46148437 15.91796875 21.69921875 C10.38601455 23.58964054 10.38601455 23.58964054 6.0625 27.3125 C5.5365625 28.6428125 5.5365625 28.6428125 5 30 C4.43851673 31.27128288 3.87598291 32.54210218 3.3125 33.8125 C2.879375 34.864375 2.44625 35.91625 2 37 C0.08984375 36.27734375 0.08984375 36.27734375 -2 35 C-2.87109375 32.94140625 -2.87109375 32.94140625 -3.4375 30.5625 C-4.52390317 26.8430614 -4.52390317 26.8430614 -7.25 24.125 C-8.1575 23.75375 -9.065 23.3825 -10 23 C-10.62003906 22.72542969 -11.24007812 22.45085937 -11.87890625 22.16796875 C-13.57410337 21.41797245 -15.28592819 20.70579428 -17 20 C-17 19.01 -17 18.02 -17 17 C-16.18015625 16.76667969 -15.3603125 16.53335938 -14.515625 16.29296875 C-7.89694813 14.18210744 -7.89694813 14.18210744 -3.34765625 9.25390625 C-2.40527147 6.5192123 -1.66537864 3.81252249 -1 1 C-0.67 0.67 -0.34 0.34 0 0 Z " fill="#020202" transform="translate(623,143)"/>
<path d="M0 0 C1.32 0.33 2.64 0.66 4 1 C4.03996094 1.61488281 4.07992187 2.22976563 4.12109375 2.86328125 C4.46268253 5.50743143 4.86138507 7.58098036 6 10 C8.86515403 11.70609361 11.76076962 12.32314589 15 13 C15.66 13.33 16.32 13.66 17 14 C16.76953125 15.89453125 16.76953125 15.89453125 16 18 C14.07421875 18.94921875 14.07421875 18.94921875 11.6875 19.6875 C8.69067038 20.86618936 7.30478177 21.53721294 5.515625 24.25390625 C4.55361869 26.48115998 3.70872691 28.68053011 3 31 C2.01 31 1.02 31 0 31 C-0.25652344 30.32453125 -0.51304687 29.6490625 -0.77734375 28.953125 C-2.97548027 23.83154093 -4.5524964 20.64825077 -9.8125 18.375 C-11.19672894 17.88272935 -12.58971326 17.4117177 -14 17 C-14 16.01 -14 15.02 -14 14 C-13.32453125 13.82726562 -12.6490625 13.65453125 -11.953125 13.4765625 C-6.31009779 11.740761 -6.31009779 11.740761 -2.4453125 7.5078125 C-1.48104764 5.02324683 -0.66004849 2.58108514 0 0 Z " fill="#020202" transform="translate(808,398)"/>
<path d="M0 0 C2.33043558 3.49565336 2.58763244 4.8865729 2 9 C-0.125 11.4375 -0.125 11.4375 -3 13 C-6.50732933 13 -8.2434698 12.6345092 -10.9375 10.375 C-12.51258002 6.8542329 -12.06404602 4.65765818 -11 1 C-7.14468237 -2.63501376 -4.61250986 -2.25500482 0 0 Z " fill="#030303" transform="translate(698,158)"/>
<path d="M0 0 C2.375 1.5625 2.375 1.5625 4 4 C4.5 7.5625 4.5 7.5625 4 11 C1.80827201 13.61321414 0.35345908 13.94109015 -3 14.5 C-6 14 -6 14 -8.4375 11.875 C-10 9 -10 9 -9.9375 5.875 C-8.12944906 0.33031044 -5.83514388 -0.83359198 0 0 Z " fill="#020202" transform="translate(304,381)"/>
<path d="M0 0 C18.15 0 36.3 0 55 0 C55 0.99 55 1.98 55 3 C53.1875 3.625 53.1875 3.625 51 4 C50.01 3.34 49.02 2.68 48 2 C45.75979447 1.67322654 45.75979447 1.67322654 43.25317383 1.68115234 C42.29240433 1.66128265 41.33163483 1.64141296 40.3417511 1.62094116 C39.30729355 1.60938995 38.272836 1.59783875 37.20703125 1.5859375 C35.61528328 1.55688828 35.61528328 1.55688828 33.99137878 1.5272522 C30.59850122 1.46742167 27.2055898 1.42105679 23.8125 1.375 C21.51365699 1.33682345 19.21482833 1.29777191 16.91601562 1.2578125 C11.27747105 1.16171732 5.63884021 1.07667994 0 1 C0 0.67 0 0.34 0 0 Z " fill="#0A0A0A" transform="translate(455,338)"/>
<path d="M0 0 C1.39456452 0.00667256 2.78911118 0.01863093 4.18359375 0.03515625 C4.89451172 0.03966797 5.60542969 0.04417969 6.33789062 0.04882812 C8.09899388 0.06064761 9.86005411 0.07858362 11.62109375 0.09765625 C11.62109375 0.75765625 11.62109375 1.41765625 11.62109375 2.09765625 C13.27109375 2.09765625 14.92109375 2.09765625 16.62109375 2.09765625 C16.62109375 2.42765625 16.62109375 2.75765625 16.62109375 3.09765625 C8.20609375 3.59265625 8.20609375 3.59265625 -0.37890625 4.09765625 C-0.70890625 5.08765625 -1.03890625 6.07765625 -1.37890625 7.09765625 C-2.69890625 6.43765625 -4.01890625 5.77765625 -5.37890625 5.09765625 C-4.25559544 0.12299409 -4.25559544 0.12299409 0 0 Z " fill="#8C8D8D" transform="translate(666.37890625,265.90234375)"/>
<path d="M0 0 C0.73605469 0.00451172 1.47210937 0.00902344 2.23046875 0.01367188 C4.02868158 0.02534858 5.82685197 0.04327989 7.625 0.0625 C7.625 0.3925 7.625 0.7225 7.625 1.0625 C0.21356436 2.48875566 -6.82362068 3.36321865 -14.375 3.0625 C-14.375 2.4025 -14.375 1.7425 -14.375 1.0625 C-9.51770355 0.08950844 -4.9249375 -0.05788805 0 0 Z " fill="#161616" transform="translate(547.375,635.9375)"/>
<path d="M0 0 C2.58366245 0.14120016 5.16682885 0.28778333 7.75 0.4375 C8.47960937 0.47681641 9.20921875 0.51613281 9.9609375 0.55664062 C13.4272973 0.76147098 16.65333026 1.0852002 20 2 C20 2.66 20 3.32 20 4 C6.3667426 3.22095672 6.3667426 3.22095672 0 1 C0 0.67 0 0.34 0 0 Z " fill="#141515" transform="translate(678,267)"/>
<path d="M0 0 C0.70640625 0.05220703 1.4128125 0.10441406 2.140625 0.15820312 C3.88579987 0.28791207 5.63045725 0.42454954 7.375 0.5625 C7.045 1.2225 6.715 1.8825 6.375 2.5625 C1.095 2.5625 -4.185 2.5625 -9.625 2.5625 C-9.625 1.9025 -9.625 1.2425 -9.625 0.5625 C-6.5270403 -0.98647985 -3.36283448 -0.26989539 0 0 Z " fill="#080808" transform="translate(430.625,553.4375)"/>
<path d="M0 0 C0.99 0.33 1.98 0.66 3 1 C2.01 2.32 1.02 3.64 0 5 C0.66 5.33 1.32 5.66 2 6 C0.02 6.66 -1.96 7.32 -4 8 C-4 6.68 -4 5.36 -4 4 C-2.68 3.34 -1.36 2.68 0 2 C0 1.34 0 0.68 0 0 Z " fill="#0C0C0C" transform="translate(663,370)"/>
<path d="M0 0 C4.62 0 9.24 0 14 0 C14 0.99 14 1.98 14 3 C12.1875 3.625 12.1875 3.625 10 4 C9.01 3.34 8.02 2.68 7 2 C4.67612053 1.60612212 2.34206251 1.26513915 0 1 C0 0.67 0 0.34 0 0 Z " fill="#101010" transform="translate(496,338)"/>
<path d="M0 0 C2.475 0.99 2.475 0.99 5 2 C5 2.99 5 3.98 5 5 C0.545 5.495 0.545 5.495 -4 6 C-1 4 -1 4 1 3 C0.67 2.01 0.34 1.02 0 0 Z " fill="#0B0B0B" transform="translate(402,617)"/>
<path d="M0 0 C6.4 0.49230769 6.4 0.49230769 9.4375 3.0625 C10.2109375 4.0215625 10.2109375 4.0215625 11 5 C7.0507432 4.44894091 3.65079826 3.61064629 0 2 C0 1.34 0 0.68 0 0 Z " fill="#0B0C0B" transform="translate(683,275)"/>
<path d="M0 0 C-0.99 1.485 -0.99 1.485 -2 3 C-1.34 3.33 -0.68 3.66 0 4 C-2.97 3.505 -2.97 3.505 -6 3 C-6 2.01 -6 1.02 -6 0 C-3.50907189 -1.24546405 -2.58919267 -0.7767578 0 0 Z " fill="#0A0A0A" transform="translate(612,160)"/>
<path d="M0 0 C-0.66 1.65 -1.32 3.3 -2 5 C-3.32 4.67 -4.64 4.34 -6 4 C-5.67 3.01 -5.34 2.02 -5 1 C-2 0 -2 0 0 0 Z " fill="#070707" transform="translate(634,202)"/>
<path d="M0 0 C-0.33 0.33 -0.66 0.66 -1 1 C0.32 1.66 1.64 2.32 3 3 C0.69 3 -1.62 3 -4 3 C-4 2.34 -4 1.68 -4 1 C-4.66 0.67 -5.32 0.34 -6 0 C-3.50907189 -1.24546405 -2.58919267 -0.7767578 0 0 Z " fill="#181818" transform="translate(670,270)"/>
<path d="M0 0 C0.66 0 1.32 0 2 0 C1.67 1.32 1.34 2.64 1 4 C1.66 4.33 2.32 4.66 3 5 C2.67 5.66 2.34 6.32 2 7 C0.68 6.34 -0.64 5.68 -2 5 C-1.125 1.125 -1.125 1.125 0 0 Z " fill="#696969" transform="translate(663,266)"/>
</svg>
