<svg width="61" height="63" viewBox="0 0 61 63" fill="none" xmlns="http://www.w3.org/2000/svg">
<path d="M33.0415 7.875H40.6665V18.375C40.6665 22.5522 39.0598 26.5582 36.1999 29.5119C33.34 32.4656 29.4611 34.125 25.4165 34.125C21.372 34.125 17.4931 32.4656 14.6331 29.5119C11.7732 26.5582 10.1665 22.5522 10.1665 18.375V7.875H17.7915" stroke="#C9A882" stroke-width="3" stroke-linecap="round" stroke-linejoin="round"/>
<path d="M25.4165 34.125V45.9375C25.4132 47.4897 25.7067 49.0273 26.2803 50.462C26.8539 51.8968 27.6963 53.2003 28.759 54.2979C29.8218 55.3955 31.084 56.2655 32.4731 56.8579C33.8623 57.4503 35.3511 57.7535 36.854 57.75C38.357 57.7535 39.8458 57.4503 41.2349 56.8579C42.6241 56.2655 43.8863 55.3955 44.949 54.2979C46.0118 53.2003 46.8541 51.8968 47.4277 50.462C48.0013 49.0273 48.2949 47.4897 48.2915 45.9375V39.375" stroke="#C9A882" stroke-width="3" stroke-linecap="round" stroke-linejoin="round"/>
<path d="M48.2913 39.375C51.0988 39.375 53.3747 37.0245 53.3747 34.125C53.3747 31.2255 51.0988 28.875 48.2913 28.875C45.4839 28.875 43.208 31.2255 43.208 34.125C43.208 37.0245 45.4839 39.375 48.2913 39.375Z" stroke="#C9A882" stroke-width="3" stroke-linecap="round" stroke-linejoin="round"/>
</svg>
