<svg width="62" height="62" viewBox="0 0 62 62" fill="none" xmlns="http://www.w3.org/2000/svg">
<path d="M23.2501 32.9375C24.8001 24.8 26.9313 22.6687 35.0688 21.1187C36.0376 20.925 36.6188 20.15 36.6188 19.1812C36.6188 18.2125 36.0376 17.4375 35.0688 17.2437C26.9313 15.6937 24.8001 13.5625 23.2501 5.425C23.0563 4.45625 22.2813 3.875 21.3126 3.875C20.3438 3.875 19.5688 4.45625 19.3751 5.425C17.8251 13.5625 15.6938 15.6937 7.55635 17.2437C6.78135 17.4375 6.00635 18.2125 6.00635 19.1812C6.00635 20.15 6.5876 20.925 7.55635 21.1187C15.6938 22.6687 17.8251 24.8 19.3751 32.9375C19.5688 33.9062 20.3438 34.4875 21.3126 34.4875C22.2813 34.4875 23.0563 33.7125 23.2501 32.9375Z" fill="#6B5744"/>
<path d="M42.6252 46.5C37.2002 45.3375 36.0377 44.175 34.8752 38.7499C34.6814 37.7812 33.9064 37.2 32.9377 37.2C31.9689 37.2 31.1939 37.7812 31.0002 38.7499C29.8377 44.175 28.6752 45.3375 23.2502 46.5C22.2814 46.6937 21.7002 47.4687 21.7002 48.4375C21.7002 49.4062 22.2814 50.1812 23.2502 50.375C28.6752 51.5375 29.8377 52.7 31.0002 58.125C31.1939 59.0937 31.9689 59.6749 32.9377 59.6749C33.9064 59.6749 34.6814 59.0937 34.8752 58.125C36.0377 52.7 37.2002 51.5375 42.6252 50.375C43.5939 50.1812 44.1752 49.4062 44.1752 48.4375C44.1752 47.4687 43.4002 46.6937 42.6252 46.5Z" fill="#6B5744"/>
<path d="M56.5752 27.1251C52.3127 26.3501 51.3439 25.3813 50.5689 21.1188C50.3752 20.1501 49.6002 19.5688 48.6314 19.5688C47.6627 19.5688 46.8877 20.1501 46.6939 21.1188C45.9189 25.3813 44.9502 26.3501 40.6877 27.1251C39.7189 27.3188 39.1377 28.0938 39.1377 29.0626C39.1377 30.0313 39.7189 30.8063 40.6877 31.0001C44.9502 31.7751 45.9189 32.7438 46.6939 37.0063C46.8877 37.9751 47.6627 38.5563 48.6314 38.5563C49.6002 38.5563 50.3752 37.9751 50.5689 37.0063C51.3439 32.7438 52.3127 31.7751 56.5752 31.0001C57.5439 30.8063 58.1252 30.0313 58.1252 29.0626C58.1252 28.0938 57.5439 27.3188 56.5752 27.1251Z" fill="#6B5744"/>
<path d="M11.0437 43.2063C10.4625 42.625 9.6875 42.4313 8.9125 42.8188C8.71875 42.8188 8.525 43.0125 8.33125 43.2063C8.1375 43.4 7.94375 43.5938 7.94375 43.7875C7.75 43.9813 7.75 44.3688 7.75 44.5625C7.75 44.7563 7.75 45.1438 7.94375 45.3375C8.1375 45.5313 8.1375 45.725 8.33125 45.9188C8.525 46.1125 8.71875 46.3063 8.9125 46.3063C9.10625 46.5 9.49375 46.5 9.6875 46.5C9.88125 46.5 10.2688 46.5 10.4625 46.3063C10.6563 46.1125 10.85 46.1125 11.0437 45.9188C11.2375 45.725 11.4313 45.5313 11.4313 45.3375C11.625 45.1438 11.625 44.7563 11.625 44.5625C11.625 44.3688 11.625 43.9813 11.4313 43.7875C11.4313 43.5938 11.2375 43.4 11.0437 43.2063Z" fill="#6B5744"/>
<path d="M54.25 13.5624C54.8312 13.5624 55.2188 13.3687 55.6063 12.9812C55.9938 12.5937 56.1875 12.2062 56.1875 11.6249C56.1875 11.0437 55.9938 10.6562 55.6063 10.2687C55.4125 10.0749 55.2187 9.88115 55.025 9.88115C54.6375 9.6874 54.0563 9.6874 53.475 9.88115C53.2813 9.88115 53.0875 10.0749 52.8937 10.2687C52.5062 10.6562 52.3125 11.0437 52.3125 11.6249C52.3125 12.2062 52.5062 12.5937 52.8937 12.9812C53.2812 13.3687 53.6687 13.5624 54.25 13.5624Z" fill="#6B5744"/>
</svg>
